<?xml version="1.0" standalone="no"?>
<!DOCTYPE svg PUBLIC "-//W3C//DTD SVG 20010904//EN"
 "http://www.w3.org/TR/2001/REC-SVG-20010904/DTD/svg10.dtd">
<svg version="1.0" xmlns="http://www.w3.org/2000/svg"
 width="1280.000000pt" height="1200.000000pt" viewBox="0 0 1280.000000 1200.000000"
 preserveAspectRatio="xMidYMid meet">
<metadata>
Created by potrace 1.15, written by Peter Selinger 2001-2017
</metadata>
<g transform="translate(0.000000,1200.000000) scale(0.100000,-0.100000)"
fill="#000000" stroke="none">
<path d="M10520 11991 c-111 -35 -173 -118 -174 -231 -3 -226 274 -422 696
-495 111 -20 133 -30 189 -93 87 -96 164 -289 244 -611 71 -285 78 -344 72
-646 -6 -287 -17 -400 -97 -965 -95 -664 -150 -920 -247 -1150 -144 -338 -313
-446 -773 -494 -311 -33 -464 -36 -1743 -36 -1314 0 -1869 -8 -2397 -36 -413
-21 -1179 -30 -1410 -15 -352 22 -567 58 -675 113 -38 19 -75 62 -75 85 0 13
-6 25 -12 27 -191 58 -284 102 -399 187 -124 92 -221 207 -428 509 -208 302
-277 381 -476 547 -186 156 -276 241 -331 316 -56 75 -137 243 -209 432 -58
153 -120 309 -150 379 l-16 39 -33 -49 c-19 -27 -52 -69 -74 -93 -22 -24 -61
-85 -87 -135 -26 -50 -66 -121 -89 -158 -35 -57 -45 -67 -69 -68 -45 0 -125
85 -234 251 -54 82 -101 149 -104 149 -8 0 -19 -80 -19 -139 0 -26 9 -96 20
-156 29 -159 28 -169 -23 -218 -33 -33 -63 -49 -132 -72 -170 -56 -451 -215
-561 -317 -25 -23 -83 -99 -129 -168 -45 -70 -103 -144 -128 -166 -24 -22
-103 -70 -175 -108 -152 -79 -197 -115 -236 -186 -51 -94 -44 -220 25 -418 55
-155 115 -258 204 -348 134 -134 235 -171 606 -220 189 -24 312 -90 405 -216
63 -87 82 -127 154 -328 40 -111 101 -252 168 -385 218 -437 297 -649 398
-1078 127 -542 195 -728 453 -1250 276 -556 290 -629 222 -1142 -22 -170 -54
-422 -71 -560 -70 -574 -190 -1310 -231 -1419 -53 -144 -159 -220 -420 -302
-190 -60 -274 -118 -329 -227 -36 -72 -39 -124 -8 -178 61 -109 228 -154 540
-147 160 3 177 6 228 29 95 44 166 120 248 266 124 218 171 268 242 260 19 -2
43 -7 52 -11 14 -6 24 6 52 61 53 107 109 246 202 503 138 379 159 431 299
720 73 151 177 383 230 515 53 132 128 304 165 383 38 78 67 142 64 142 -13 0
102 196 164 279 l25 33 42 -168 c125 -497 438 -1231 747 -1751 82 -137 131
-193 278 -317 151 -128 215 -202 236 -273 14 -49 14 -59 -6 -155 -23 -110 -21
-147 12 -234 23 -63 94 -133 160 -159 74 -28 204 -18 288 22 216 102 295 379
192 676 -49 142 -124 254 -337 507 -165 195 -226 279 -283 390 -59 113 -76
164 -98 290 -18 105 -16 214 10 470 23 219 36 533 37 847 l1 283 201 0 c223 0
445 -10 885 -40 565 -38 839 -25 1400 66 l42 7 0 -76 c0 -154 42 -384 126
-696 24 -90 60 -225 80 -299 20 -75 67 -224 106 -332 81 -226 116 -362 124
-475 15 -214 -83 -401 -351 -671 -132 -133 -250 -225 -352 -276 -78 -38 -140
-42 -288 -19 -81 13 -96 12 -149 -3 -76 -22 -148 -93 -197 -191 -77 -157 -25
-288 146 -365 106 -48 187 -64 330 -64 199 -1 358 43 583 159 268 140 499 319
881 684 270 257 411 423 497 586 58 108 65 162 35 260 -12 39 -28 103 -36 143
-44 228 -23 352 68 395 28 14 35 25 54 89 12 40 45 114 74 163 100 173 138
304 148 509 l6 130 231 -250 c261 -282 418 -435 561 -551 257 -206 570 -402
920 -574 379 -186 423 -234 423 -459 0 -211 -96 -532 -218 -734 -23 -37 -42
-71 -42 -76 0 -4 -27 -24 -59 -44 -115 -70 -201 -195 -201 -291 0 -57 37 -140
80 -179 50 -45 105 -60 200 -53 41 4 143 11 225 17 287 20 366 41 451 122 91
86 148 219 228 535 123 484 179 851 180 1183 0 299 -26 404 -129 520 -146 164
-299 468 -499 988 -131 341 -166 490 -173 732 -4 149 0 208 22 395 19 152 29
291 32 450 5 205 3 244 -17 360 -35 211 -75 316 -210 545 -137 233 -174 330
-189 492 -10 98 -8 114 19 250 37 182 98 393 193 668 41 118 114 328 162 465
109 315 155 479 205 725 127 634 132 1320 15 2045 -70 432 -204 724 -439 961
-195 195 -405 305 -716 372 -361 79 -498 100 -550 83z"/>
</g>
</svg>
